<svg width="114" height="112" viewBox="0 0 114 112" fill="none" xmlns="http://www.w3.org/2000/svg">
<path fill-rule="evenodd" clip-rule="evenodd" d="M104.612 83.8205C94.9548 100.658 76.8019 112 56 112C25.0721 112 0 86.9279 0 56C0 25.0721 25.0721 0 56 0C76.6499 0 94.6894 11.177 104.399 27.8114L89.9319 36.1637C83.1108 24.5207 70.4686 16.7018 56.0001 16.7018C34.2962 16.7018 16.7018 34.2962 16.7018 56C16.7018 77.7038 34.2962 95.2983 56.0001 95.2983C70.6206 95.2983 83.3763 87.3141 90.145 75.4681L104.612 83.8205Z" fill="#F59E0B"/>
<path d="M113.6 55.6L90.7999 42.09V69.11L113.6 55.6Z" fill="white"/>
</svg>
