<svg width="64" height="32" viewBox="0 0 64 32" fill="none" xmlns="http://www.w3.org/2000/svg">
<path d="M14.2815 25.7189L16.2413 15.1579H20.3251L16.6989 32H12.4274L10.1391 22.3991L7.89767 32H3.63786L0 15.1579H4.09552L6.05527 25.7189L8.40228 15.1579H11.8993L14.2815 25.7189Z" fill="#F59E0B"/>
<path d="M32.5295 24.8629H26.0518V28.8768H33.703V32H21.9328V15.1579H33.7265V18.2927H26.0518V21.8438H32.5295V24.8629Z" fill="#F59E0B"/>
<path d="M45.9778 24.8629H39.5001V28.8768H47.1513V32H35.3811V15.1579H47.1748V18.2927H39.5001V21.8438H45.9778V24.8629Z" fill="#F59E0B"/>
<path d="M54.6383 25.7305L52.9484 27.5581V32H48.8294V15.1579H52.9484V22.5842L54.3801 20.4442L58.0649 15.1579H63.1579L57.3843 22.6073L63.1579 32H58.2761L54.6383 25.7305Z" fill="#F59E0B"/>
<path d="M2.80187 10.1059H7.67921V12.2612H0V0.638604H2.80187V10.1059Z" fill="#F7FAFC"/>
<path d="M11.8461 12.2612H9.05221V0.638604H11.8461V12.2612Z" fill="#F7FAFC"/>
<path d="M22.6784 2.80187H19.19V12.2612H16.3882V2.80187H12.9637V0.638604H22.6784V2.80187Z" fill="#F7FAFC"/>
<path d="M33.1196 2.80187H29.6312V12.2612H26.8293V2.80187H23.4048V0.638604H33.1196V2.80187Z" fill="#F7FAFC"/>
<path d="M37.2944 12.2612H34.5006V0.638604H37.2944V12.2612Z" fill="#F7FAFC"/>
<path d="M48.7574 10.8243C48.3263 11.3033 47.6957 11.6891 46.8655 11.9818C46.0353 12.2745 45.1253 12.4208 44.1355 12.4208C42.6135 12.4208 41.3975 11.9552 40.4875 11.0239C39.5775 10.0926 39.0905 8.79676 39.0267 7.13639L39.0187 6.13059C39.0187 4.98643 39.2209 3.98861 39.6253 3.13714C40.0298 2.28035 40.6072 1.62312 41.3576 1.16545C42.1132 0.702464 42.986 0.47097 43.9758 0.47097C45.4233 0.47097 46.5462 0.803576 47.3445 1.46879C48.148 2.12868 48.6164 3.11585 48.7494 4.43031H46.0513C45.9555 3.78107 45.748 3.31808 45.4287 3.04135C45.1094 2.76462 44.657 2.62626 44.0716 2.62626C43.3692 2.62626 42.8263 2.92427 42.4432 3.5203C42.06 4.11633 41.8658 4.9678 41.8605 6.07472V6.77718C41.8605 7.93731 42.0574 8.81007 42.4512 9.39546C42.8503 9.97552 43.4756 10.2656 44.3271 10.2656C45.0561 10.2656 45.599 10.1032 45.9555 9.77862V7.97456H44.0078V6.05077H48.7574V10.8243Z" fill="#F7FAFC"/>
<path d="M51.216 4.27864L50.0346 3.64004C50.4763 2.87372 50.7025 2.12336 50.7131 1.38896V0H52.6768V1.30115C52.6768 1.79607 52.5331 2.32558 52.2458 2.88968C51.9637 3.44846 51.6205 3.91145 51.216 4.27864Z" fill="#F7FAFC"/>
<path d="M60.356 9.17194C60.356 8.76217 60.2097 8.44287 59.917 8.21404C59.6296 7.98521 59.1214 7.74839 58.3923 7.50359C57.6632 7.25879 57.0672 7.02198 56.6042 6.79315C55.0982 6.05343 54.3452 5.03699 54.3452 3.74381C54.3452 3.09989 54.5314 2.53313 54.9039 2.04353C55.2818 1.54861 55.8139 1.16545 56.5004 0.894045C57.1869 0.617317 57.9586 0.478953 58.8154 0.478953C59.6509 0.478953 60.3986 0.62796 61.0585 0.925975C61.7237 1.22399 62.2399 1.64973 62.6071 2.20318C62.9743 2.75132 63.1579 3.37928 63.1579 4.08706H60.364C60.364 3.61343 60.2176 3.24624 59.925 2.98547C59.6376 2.72471 59.2464 2.59433 58.7515 2.59433C58.2513 2.59433 57.8548 2.70608 57.5621 2.92959C57.2748 3.14778 57.1311 3.42717 57.1311 3.76776C57.1311 4.06578 57.2907 4.33718 57.61 4.58198C57.9293 4.82146 58.4908 5.07158 59.2943 5.33234C60.0979 5.58778 60.7578 5.86451 61.274 6.16252C62.5299 6.88628 63.1579 7.88409 63.1579 9.15598C63.1579 10.1724 62.7747 10.9707 62.0084 11.5507C61.2421 12.1308 60.191 12.4208 58.8553 12.4208C57.9134 12.4208 57.0592 12.2532 56.2929 11.9179C55.5319 11.5774 54.9572 11.1144 54.5687 10.529C54.1855 9.93827 53.9939 9.25975 53.9939 8.49343H56.8038C56.8038 9.11607 56.9634 9.57639 57.2827 9.87441C57.6074 10.1671 58.1315 10.3134 58.8553 10.3134C59.3183 10.3134 59.6828 10.215 59.9489 10.0181C60.2203 9.81587 60.356 9.53382 60.356 9.17194Z" fill="#F7FAFC"/>
</svg>
