<svg width="113" height="44" viewBox="0 0 113 44" fill="none" xmlns="http://www.w3.org/2000/svg">
<path fill-rule="evenodd" clip-rule="evenodd" d="M40.148 32.677C36.4419 39.1389 29.4751 43.4917 21.4917 43.4917C9.62218 43.4917 0 33.8696 0 22C0 10.1304 9.62218 0.508255 21.4917 0.508255C29.4168 0.508255 36.34 4.79778 40.0662 11.1817L34.5142 14.3872C31.8964 9.91885 27.0445 6.91808 21.4918 6.91808C13.1623 6.91808 6.40984 13.6705 6.40984 22C6.40984 30.3295 13.1623 37.0819 21.4918 37.0819C27.1028 37.0819 31.9982 34.0178 34.5959 29.4715L40.148 32.677Z" fill="#ED8936"/>
<path d="M43.5975 21.8465L34.8473 16.6616V27.0314L43.5975 21.8465Z" fill="white"/>
<path d="M47.5889 21.8026C47.5889 20.6527 47.8376 19.6299 48.3352 18.7343C48.8328 17.8276 49.5238 17.1255 50.4084 16.628C51.304 16.1194 52.3157 15.865 53.4435 15.865C54.8256 15.865 56.0087 16.2299 56.9927 16.9597C57.9768 17.6894 58.6347 18.6846 58.9664 19.945H55.8484C55.6162 19.4585 55.2845 19.0881 54.8532 18.8338C54.4331 18.5795 53.9521 18.4524 53.4103 18.4524C52.5368 18.4524 51.8292 18.7564 51.2874 19.3646C50.7456 19.9727 50.4747 20.7854 50.4747 21.8026C50.4747 22.8198 50.7456 23.6325 51.2874 24.2406C51.8292 24.8488 52.5368 25.1528 53.4103 25.1528C53.9521 25.1528 54.4331 25.0257 54.8532 24.7714C55.2845 24.5171 55.6162 24.1467 55.8484 23.6602H58.9664C58.6347 24.9206 57.9768 25.9158 56.9927 26.6455C56.0087 27.3642 54.8256 27.7236 53.4435 27.7236C52.3157 27.7236 51.304 27.4748 50.4084 26.9772C49.5238 26.4686 48.8328 25.7665 48.3352 24.8709C47.8376 23.9753 47.5889 22.9525 47.5889 21.8026Z" fill="white"/>
<path d="M70.6876 15.9977L66.6573 23.7928V27.6406H63.8212V23.7928L59.791 15.9977H63.0086L65.2642 20.8738L67.5032 15.9977H70.6876Z" fill="white"/>
<path d="M80.2059 15.9977V18.2699H77.121V27.6406H74.2849V18.2699H71.2V15.9977H80.2059Z" fill="white"/>
<path d="M87.5668 27.6406L85.1453 23.2455H84.4653V27.6406H81.6292V15.9977H86.3892C87.3069 15.9977 88.0864 16.1581 88.7277 16.4787C89.3801 16.7994 89.8666 17.2416 90.1872 17.8055C90.5079 18.3584 90.6682 18.9776 90.6682 19.6631C90.6682 20.4371 90.4471 21.1281 90.0048 21.7363C89.5736 22.3444 88.9323 22.7756 88.0809 23.0299L90.7677 27.6406H87.5668ZM84.4653 21.2387H86.2233C86.743 21.2387 87.13 21.1115 87.3843 20.8572C87.6497 20.6029 87.7824 20.2436 87.7824 19.7792C87.7824 19.3369 87.6497 18.9886 87.3843 18.7343C87.13 18.48 86.743 18.3528 86.2233 18.3528H84.4653V21.2387Z" fill="white"/>
<path d="M95.2349 15.9977V22.9636C95.2349 23.6602 95.4063 24.1964 95.749 24.5723C96.0918 24.9483 96.5949 25.1362 97.2583 25.1362C97.9217 25.1362 98.4303 24.9483 98.7841 24.5723C99.138 24.1964 99.3149 23.6602 99.3149 22.9636V15.9977H102.151V22.947C102.151 23.9863 101.93 24.8654 101.488 25.5841C101.045 26.3027 100.448 26.8445 99.6963 27.2094C98.9555 27.5743 98.1263 27.7567 97.2085 27.7567C96.2908 27.7567 95.4671 27.5798 94.7373 27.226C94.0186 26.8611 93.4492 26.3193 93.029 25.6006C92.6089 24.8709 92.3988 23.9863 92.3988 22.947V15.9977H95.2349Z" fill="white"/>
<path d="M108.355 27.7567C107.504 27.7567 106.741 27.6185 106.066 27.3421C105.392 27.0657 104.85 26.6566 104.441 26.1148C104.043 25.573 103.833 24.9206 103.811 24.1577H106.829C106.874 24.5889 107.023 24.9206 107.277 25.1528C107.531 25.374 107.863 25.4845 108.272 25.4845C108.692 25.4845 109.024 25.3906 109.267 25.2026C109.511 25.0036 109.632 24.7327 109.632 24.3899C109.632 24.1024 109.533 23.8647 109.334 23.6767C109.146 23.4888 108.908 23.334 108.621 23.2123C108.344 23.0907 107.946 22.9525 107.426 22.7977C106.675 22.5655 106.061 22.3333 105.585 22.1011C105.11 21.8689 104.701 21.5262 104.358 21.0728C104.015 20.6195 103.844 20.028 103.844 19.2982C103.844 18.2146 104.236 17.3688 105.022 16.7607C105.807 16.1415 106.829 15.8319 108.09 15.8319C109.372 15.8319 110.406 16.1415 111.191 16.7607C111.976 17.3688 112.396 18.2202 112.452 19.3148H109.383C109.361 18.9389 109.223 18.6459 108.969 18.4358C108.715 18.2146 108.388 18.1041 107.99 18.1041C107.648 18.1041 107.371 18.1981 107.161 18.386C106.951 18.5629 106.846 18.8228 106.846 19.1655C106.846 19.5415 107.023 19.8345 107.377 20.0446C107.73 20.2546 108.283 20.4813 109.035 20.7245C109.787 20.9789 110.395 21.2221 110.86 21.4543C111.335 21.6865 111.744 22.0237 112.087 22.466C112.43 22.9083 112.601 23.4777 112.601 24.1743C112.601 24.8377 112.43 25.4403 112.087 25.9821C111.755 26.5239 111.269 26.9551 110.627 27.2758C109.986 27.5964 109.229 27.7567 108.355 27.7567Z" fill="white"/>
</svg>
