<svg width="294" height="112" viewBox="0 0 294 112" fill="none" xmlns="http://www.w3.org/2000/svg">
<path fill-rule="evenodd" clip-rule="evenodd" d="M104.612 83.8205C94.9548 100.658 76.8019 112 56 112C25.0721 112 0 86.9279 0 56C0 25.0721 25.0721 0 56 0C76.6499 0 94.6894 11.177 104.399 27.8114L89.9319 36.1637C83.1108 24.5207 70.4686 16.7018 56.0001 16.7018C34.2962 16.7018 16.7018 34.2962 16.7018 56C16.7018 77.7038 34.2962 95.2983 56.0001 95.2983C70.6206 95.2983 83.3763 87.3141 90.145 75.4681L104.612 83.8205Z" fill="#F59E0B"/>
<path d="M113.6 55.6L90.7999 42.09V69.11L113.6 55.6Z" fill="white"/>
<path d="M124 55.4856C124 52.4893 124.648 49.8244 125.945 47.4907C127.241 45.1283 129.042 43.2988 131.347 42.0023C133.68 40.6771 136.316 40.0144 139.255 40.0144C142.856 40.0144 145.939 40.9652 148.503 42.8667C151.067 44.7681 152.782 47.3611 153.646 50.6455H145.521C144.916 49.3778 144.052 48.4127 142.928 47.75C141.834 47.0874 140.58 46.7561 139.169 46.7561C136.893 46.7561 135.049 47.5483 133.637 49.1329C132.225 50.7175 131.52 52.8351 131.52 55.4856C131.52 58.1362 132.225 60.2537 133.637 61.8383C135.049 63.4229 136.893 64.2152 139.169 64.2152C140.58 64.2152 141.834 63.8838 142.928 63.2212C144.052 62.5586 144.916 61.5934 145.521 60.3258H153.646C152.782 63.6101 151.067 66.2031 148.503 68.1046C145.939 69.9772 142.856 70.9136 139.255 70.9136C136.316 70.9136 133.68 70.2653 131.347 68.9689C129.042 67.6436 127.241 65.8141 125.945 63.4805C124.648 61.1468 124 58.4819 124 55.4856Z" fill="white"/>
<path d="M184.187 40.3602L173.686 60.6715V70.6975H166.296V60.6715L155.795 40.3602H164.178L170.056 53.0655L175.89 40.3602H184.187Z" fill="white"/>
<path d="M208.988 40.3602V46.2807H200.95V70.6975H193.561V46.2807H185.522V40.3602H208.988Z" fill="white"/>
<path d="M228.168 70.6975L221.859 59.2454H220.087V70.6975H212.697V40.3602H225.1C227.491 40.3602 229.523 40.7779 231.194 41.6134C232.893 42.4489 234.161 43.6013 234.997 45.0707C235.832 46.5112 236.25 48.1246 236.25 49.9108C236.25 51.9275 235.674 53.7282 234.521 55.3127C233.398 56.8973 231.727 58.0209 229.508 58.6836L236.509 70.6975H228.168ZM220.087 54.0163H224.668C226.022 54.0163 227.03 53.685 227.693 53.0223C228.385 52.3597 228.73 51.4233 228.73 50.2133C228.73 49.0609 228.385 48.1534 227.693 47.4907C227.03 46.8281 226.022 46.4968 224.668 46.4968H220.087V54.0163Z" fill="white"/>
<path d="M248.149 40.3602V58.5107C248.149 60.3258 248.595 61.7231 249.489 62.7026C250.382 63.6822 251.693 64.1719 253.421 64.1719C255.15 64.1719 256.475 63.6822 257.397 62.7026C258.319 61.7231 258.78 60.3258 258.78 58.5107V40.3602H266.17V58.4675C266.17 61.1757 265.594 63.4661 264.441 65.3388C263.289 67.2114 261.733 68.6231 259.774 69.5739C257.844 70.5246 255.683 71 253.292 71C250.9 71 248.754 70.539 246.852 69.6171C244.98 68.6664 243.496 67.2547 242.401 65.382C241.306 63.4805 240.759 61.1757 240.759 58.4675V40.3602H248.149Z" fill="white"/>
<path d="M282.336 71C280.117 71 278.129 70.6399 276.372 69.9196C274.615 69.1994 273.203 68.1334 272.137 66.7217C271.1 65.3099 270.552 63.6101 270.495 61.6222H278.36C278.475 62.7458 278.864 63.6101 279.527 64.2152C280.189 64.7914 281.054 65.0795 282.12 65.0795C283.215 65.0795 284.079 64.8346 284.713 64.3448C285.346 63.8262 285.663 63.1204 285.663 62.2272C285.663 61.4782 285.404 60.8587 284.886 60.369C284.396 59.8792 283.776 59.4758 283.027 59.1589C282.307 58.842 281.27 58.4819 279.916 58.0785C277.957 57.4735 276.358 56.8685 275.119 56.2635C273.88 55.6585 272.814 54.7653 271.921 53.5841C271.028 52.4029 270.581 50.8615 270.581 48.9601C270.581 46.1366 271.604 43.9326 273.649 42.3481C275.695 40.7347 278.36 39.928 281.644 39.928C284.986 39.928 287.68 40.7347 289.726 42.3481C291.771 43.9326 292.866 46.151 293.01 49.0033H285.015C284.958 48.0237 284.597 47.2602 283.935 46.7128C283.272 46.1366 282.422 45.8485 281.385 45.8485C280.492 45.8485 279.772 46.0934 279.224 46.5832C278.677 47.0442 278.403 47.7212 278.403 48.6143C278.403 49.5939 278.864 50.3574 279.786 50.9048C280.708 51.4522 282.149 52.0428 284.108 52.6766C286.067 53.3392 287.651 53.9731 288.861 54.5781C290.1 55.1831 291.166 56.0618 292.059 57.2142C292.952 58.3666 293.399 59.8504 293.399 61.6654C293.399 63.3941 292.952 64.9642 292.059 66.3759C291.195 67.7876 289.927 68.9112 288.256 69.7467C286.585 70.5823 284.612 71 282.336 71Z" fill="white"/>
</svg>
