<svg width="142" height="33" viewBox="0 0 142 33" fill="none" xmlns="http://www.w3.org/2000/svg">
<path d="M20.5833 7.75001C20.8241 7.50925 21.1099 7.31827 21.4245 7.18798C21.739 7.05768 22.0762 6.99062 22.4167 6.99062C22.7572 6.99062 23.0943 7.05768 23.4089 7.18798C23.7234 7.31827 24.0093 7.50925 24.25 7.75001C24.4908 7.99076 24.6817 8.27658 24.812 8.59115C24.9423 8.90571 25.0094 9.24286 25.0094 9.58334C25.0094 9.92382 24.9423 10.261 24.812 10.5755C24.6817 10.8901 24.4908 11.1759 24.25 11.4167L11.875 23.7917L6.83334 25.1667L8.20834 20.125L20.5833 7.75001Z" fill="#F59E0B"/>
<rect x="0.5" y="0.5" width="31" height="31" rx="4.5" stroke="#ED8936"/>
<path d="M41.3765 10C40.7667 10 40.1799 9.91322 39.616 9.73965C39.0521 9.56609 38.5135 9.29907 38 8.93859V6.86248H39.0521L39.2791 8.39119C39.5771 8.5692 39.9003 8.70717 40.2487 8.80507C40.5971 8.90298 40.973 8.95194 41.3765 8.95194C42.0596 8.95194 42.5891 8.80507 42.965 8.51135C43.3409 8.21317 43.5289 7.82377 43.5289 7.34312C43.5289 6.89809 43.3593 6.52871 43.02 6.23498C42.6808 5.94126 42.0756 5.69871 41.2046 5.50734C40.1685 5.27592 39.3776 4.92434 38.8321 4.4526C38.2865 3.97641 38.0138 3.37784 38.0138 2.65688C38.0138 2.14953 38.1513 1.69559 38.4264 1.29506C38.706 0.894526 39.0934 0.578549 39.5885 0.34713C40.0836 0.11571 40.6613 0 41.3215 0C42.0229 0 42.6418 0.104584 43.1782 0.313752C43.7191 0.518469 44.1638 0.76769 44.5123 1.06142V3.00401H43.4601L43.2332 1.61549C43.0269 1.45527 42.7702 1.32176 42.463 1.21495C42.1558 1.10814 41.7753 1.05474 41.3215 1.05474C40.7392 1.05474 40.267 1.19938 39.9049 1.48865C39.5473 1.77793 39.3685 2.16066 39.3685 2.63685C39.3685 3.05518 39.5404 3.39786 39.8842 3.66489C40.2281 3.92746 40.824 4.1611 41.6722 4.36582C42.7266 4.61949 43.5243 4.99555 44.0653 5.49399C44.6108 5.98798 44.8836 6.59991 44.8836 7.32977C44.8836 7.85047 44.7392 8.31331 44.4504 8.71829C44.1615 9.11883 43.7535 9.43258 43.2263 9.65955C42.7037 9.88652 42.0871 10 41.3765 10Z" fill="#F7FAFC"/>
<path d="M46.0595 9.85981V9.01869L47.1804 8.83178V1.1749L46.0595 0.987984V0.140187H53.4726V2.47664H52.3861L52.2348 1.15487H48.5351V4.31909H52.2279V5.35381H48.5351V8.87183H52.4549L52.6062 7.53004H53.6858V9.85981H46.0595Z" fill="#F7FAFC"/>
<path d="M54.9649 9.85981V9.01869L55.7076 8.91856L59.2078 0.140187H60.37L63.8083 8.91856L64.5441 9.01869V9.85981H61.6697V9.01869L62.4261 8.89186L61.7659 7.1028H57.7568L57.076 8.89186L57.8325 9.01869V9.85981H54.9649ZM58.1763 6.00134H61.3533L59.8817 2.0494L59.7992 1.82911H59.7579L59.6754 2.0494L58.1763 6.00134Z" fill="#F7FAFC"/>
<path d="M69.1997 10C68.5899 10 68.0031 9.91322 67.4392 9.73965C66.8753 9.56609 66.3367 9.29907 65.8232 8.93859V6.86248H66.8753L67.1023 8.39119C67.4003 8.5692 67.7235 8.70717 68.0719 8.80507C68.4203 8.90298 68.7962 8.95194 69.1997 8.95194C69.8828 8.95194 70.4123 8.80507 70.7882 8.51135C71.1641 8.21317 71.3521 7.82377 71.3521 7.34312C71.3521 6.89809 71.1825 6.52871 70.8432 6.23498C70.504 5.94126 69.8988 5.69871 69.0278 5.50734C67.9917 5.27592 67.2008 4.92434 66.6553 4.4526C66.1097 3.97641 65.837 3.37784 65.837 2.65688C65.837 2.14953 65.9745 1.69559 66.2496 1.29506C66.5292 0.894526 66.9166 0.578549 67.4117 0.34713C67.9069 0.11571 68.4845 0 69.1447 0C69.8461 0 70.465 0.104584 71.0014 0.313752C71.5423 0.518469 71.987 0.76769 72.3355 1.06142V3.00401H71.2833L71.0564 1.61549C70.8501 1.45527 70.5934 1.32176 70.2862 1.21495C69.979 1.10814 69.5985 1.05474 69.1447 1.05474C68.5624 1.05474 68.0902 1.19938 67.7281 1.48865C67.3705 1.77793 67.1917 2.16066 67.1917 2.63685C67.1917 3.05518 67.3636 3.39786 67.7074 3.66489C68.0513 3.92746 68.6472 4.1611 69.4954 4.36582C70.5498 4.61949 71.3475 4.99555 71.8885 5.49399C72.434 5.98798 72.7068 6.59991 72.7068 7.32977C72.7068 7.85047 72.5624 8.31331 72.2736 8.71829C71.9847 9.11883 71.5767 9.43258 71.0495 9.65955C70.5269 9.88652 69.9103 10 69.1997 10Z" fill="#F7FAFC"/>
<path d="M77.9675 10C77.1056 10 76.3629 9.79083 75.7394 9.3725C75.1205 8.95416 74.6437 8.37561 74.3091 7.63685C73.9744 6.89364 73.8071 6.03916 73.8071 5.07343V4.93324C73.8071 3.96751 73.9721 3.11526 74.3022 2.3765C74.6369 1.63329 75.1159 1.05251 75.7394 0.634179C76.3629 0.211393 77.1056 0 77.9675 0C78.8798 0 79.6431 0.211393 80.2574 0.634179C80.8763 1.05251 81.344 1.63329 81.6603 2.3765C81.9766 3.11526 82.1348 3.96751 82.1348 4.93324V5.07343C82.1348 6.03916 81.9766 6.89364 81.6603 7.63685C81.344 8.37561 80.8763 8.95416 80.2574 9.3725C79.6431 9.79083 78.8798 10 77.9675 10ZM77.9675 8.90521C78.6322 8.90521 79.1686 8.74499 79.5766 8.42457C79.9893 8.10414 80.2918 7.65688 80.4844 7.08278C80.6769 6.50423 80.7732 5.83445 80.7732 5.07343V4.91989C80.7732 4.16333 80.6746 3.50022 80.4775 2.93057C80.2849 2.35648 79.9824 1.90921 79.5698 1.58879C79.1572 1.26391 78.6231 1.10147 77.9675 1.10147C77.3669 1.10147 76.858 1.26391 76.4409 1.58879C76.0237 1.91366 75.7073 2.36315 75.4919 2.93725C75.2764 3.5069 75.1687 4.16778 75.1687 4.91989V5.07343C75.1687 5.83 75.2764 6.49755 75.4919 7.0761C75.7073 7.6502 76.0237 8.09969 76.4409 8.42457C76.858 8.74499 77.3669 8.90521 77.9675 8.90521Z" fill="#F7FAFC"/>
<path d="M83.1938 9.85981V9.01869L84.3147 8.83178V1.1749L83.1938 0.987984V0.140187H85.6832L90.5932 7.71696L90.6344 7.70361V1.1749L89.4035 0.987984V0.140187H93V0.987984L91.8791 1.1749V9.85981H90.6413L85.6007 2.24299L85.5594 2.25634V8.83178L86.7903 9.01869V9.85981H83.1938Z" fill="#F7FAFC"/>
<path d="M37 32.0911V30.1834L38.6897 29.8564V18.4647L37 18.1376V16.219H44.5218C46.3459 16.219 47.7776 16.6405 48.8169 17.4835C49.8561 18.3193 50.3757 19.4748 50.3757 20.9501C50.3757 21.8876 50.1359 22.727 49.6562 23.4683C49.1839 24.2096 48.5334 24.7873 47.7049 25.2016L49.7217 29.8673L51.0734 30.1834V32.0911H47.2144L44.7725 25.8229H41.8728V29.8564L43.5734 30.1834V32.0911H37ZM41.8728 23.3702H44.4673C46.2914 23.3702 47.2035 22.6107 47.2035 21.0918C47.2035 20.3578 46.9782 19.7728 46.5276 19.3367C46.077 18.8934 45.4084 18.6718 44.5218 18.6718H41.8728V23.3702Z" fill="#F59E0B"/>
<path d="M52.3488 32.0911V30.1834L54.0385 29.8564V18.4647L52.3488 18.1376V16.219H64.6672V20.5032H62.2253L62.0836 18.6718H57.2217V22.6616H62.5959V25.1144H57.2217V29.6492H62.3452L62.4869 27.7524H64.907V32.0911H52.3488Z" fill="#F59E0B"/>
<path d="M72.8866 32.0911L67.7849 18.312L66.3677 18.1376V16.219H72.6795V18.1376L71.2515 18.3556L74.3692 27.7197L74.609 28.5918H74.6744L74.9033 27.7415L78.0211 18.3556L76.3532 18.1376V16.219H82.3706V18.1376L80.9317 18.312L76.1461 32.0911H72.8866Z" fill="#F59E0B"/>
<path d="M83.3517 32.0911V30.1834L85.0414 29.8564V18.4647L83.3517 18.1376V16.219H89.9142V18.1376L88.2246 18.4647V29.8564L89.9142 30.1834V32.0911H83.3517Z" fill="#F59E0B"/>
<path d="M91.1352 32.0911V30.1834L92.8249 29.8564V18.4647L91.1352 18.1376V16.219H103.453V20.5032H101.012L100.87 18.6718H96.008V22.6616H101.382V25.1144H96.008V29.6492H101.132L101.273 27.7524H103.693V32.0911H91.1352Z" fill="#F59E0B"/>
<path d="M110.463 32.0911L106.778 18.3011L105.154 18.1376V16.219H111.542V18.1376L109.831 18.3883L111.695 26.1064L112.033 27.5235H112.098L112.501 26.1064L115.641 16.219H117.985L121.244 26.3789L121.626 27.6325H121.691L122.018 26.3789L123.948 18.3883L122.138 18.1376V16.219H128.406V18.1376L126.891 18.3011L123.163 32.0911H120.285L117.276 22.8142L116.895 21.5061H116.829L116.404 22.8578L113.363 32.0911H110.463Z" fill="#F59E0B"/>
<path d="M135.874 32.32C134.703 32.32 133.639 32.1892 132.68 31.9276C131.72 31.666 130.775 31.2117 129.845 30.5649V26.7277H132.309L132.647 28.9843C132.967 29.2604 133.414 29.4857 133.988 29.6601C134.569 29.8273 135.198 29.9109 135.874 29.9109C136.738 29.9109 137.4 29.7365 137.858 29.3876C138.315 29.0315 138.544 28.5519 138.544 27.9487C138.544 27.3818 138.326 26.9058 137.89 26.5206C137.461 26.1282 136.706 25.7648 135.623 25.4305C133.741 24.8854 132.338 24.2386 131.415 23.4901C130.492 22.7415 130.031 21.7168 130.031 20.416C130.031 19.5584 130.267 18.8026 130.739 18.1485C131.219 17.4872 131.88 16.9676 132.723 16.5897C133.566 16.2117 134.54 16.0155 135.645 16.001C136.866 15.9865 137.945 16.1318 138.882 16.437C139.827 16.7423 140.641 17.1674 141.324 17.7125V21.2881H138.937L138.523 19.1078C138.246 18.9334 137.872 18.7808 137.4 18.65C136.935 18.5192 136.404 18.4538 135.808 18.4538C135.045 18.4538 134.42 18.6245 133.933 18.9661C133.446 19.3077 133.203 19.7873 133.203 20.4051C133.203 20.9356 133.428 21.3789 133.879 21.735C134.336 22.0838 135.176 22.4545 136.397 22.8469C138.148 23.3338 139.475 23.977 140.376 24.7764C141.284 25.5758 141.738 26.626 141.738 27.9269C141.738 28.8353 141.495 29.6165 141.008 30.2706C140.521 30.9247 139.834 31.4298 138.948 31.7859C138.068 32.142 137.044 32.32 135.874 32.32Z" fill="#F59E0B"/>
</svg>
